<?xml version="1.0" encoding="iso-8859-1"?>
<!-- Uploaded to: SVG Repo, www.svgrepo.com, Generator: SVG Repo Mixer Tools -->
<svg height="800px" width="800px" version="1.1" id="Layer_1" xmlns="http://www.w3.org/2000/svg" xmlns:xlink="http://www.w3.org/1999/xlink" 
	 viewBox="0 0 512.001 512.001" xml:space="preserve">
<path style="fill:#495E77;" d="M444.103,197.82c-1.188,0-2.365,0.045-3.535,0.114c-8.989-45.799-49.335-80.357-97.768-80.357
	c-40.879,0-75.991,24.625-91.359,59.842c-0.349-0.004-0.694-0.027-1.043-0.027c-38.518,0-69.744,31.225-69.744,69.744
	s31.226,69.744,69.744,69.744c15.647,0,30.09-5.152,41.727-13.854c14.85,8.791,32.168,13.854,50.676,13.854
	c21.659,0,41.688-6.932,58.035-18.668c10.852,11.487,26.217,18.667,43.268,18.667c32.878,0,59.53-26.652,59.53-59.53
	C503.634,224.472,476.981,197.82,444.103,197.82z"/>
<path style="fill:#778BA0;" d="M411.443,320.136c0,41.024-33.262,74.286-74.298,74.286c-21.281,0-40.447-8.964-53.99-23.3
	c-20.404,14.648-45.399,23.3-72.436,23.3c-23.096,0-44.713-6.32-63.243-17.292c-9.625,7.198-20.788,12.449-32.901,15.177
	c-6.164,1.382-12.581,2.115-19.166,2.115c-48.078,0-87.047-38.969-87.047-87.035c0-48.078,38.969-87.047,87.047-87.047
	c0.433,0,0.866,0.037,1.297,0.037c19.178-43.944,63.002-74.682,114.013-74.682c3.196,0,6.357,0.12,9.493,0.36
	c56.165,4.23,101.9,45.782,112.522,99.929c1.466-0.084,2.931-0.144,4.409-0.144C378.182,245.839,411.443,279.1,411.443,320.136z"/>
<path style="fill:#495E77;" d="M220.213,146.054c0,0-79.26,21.785-97.682,90.676c0,0-70.5,8.015-70.5,69.696
	c0,61.697,32.125,78.02,62.546,85.876c0,0.007,0-0.001,0,0.006c-6.164,1.382-12.581,2.115-19.166,2.115
	c-48.078,0-87.047-38.969-87.047-87.035c0-48.078,38.969-87.047,87.047-87.047c0.433,0,0.866,0.037,1.297,0.037
	c19.178-43.944,63.002-74.682,114.013-74.682C213.916,145.692,217.077,145.813,220.213,146.054z"/>
</svg>